<svg xmlns="http://www.w3.org/2000/svg" version="1.1" xmlns:xlink="http://www.w3.org/1999/xlink" xmlns:svgjs="http://svgjs.dev/svgjs" width="308.7612359841165" height="304.915625" viewBox="0 0 106.00782394174519 104.68749999999999"><rect width="2000" height="1500" fill="#ff8f3d"></rect><g transform="matrix(0.49407114624505927,0,0,0.49407114624505927,506.8023067452861,250.4048582995951)"><svg viewBox="0 0 244 247" data-background-color="#ff8f3d" preserveAspectRatio="xMidYMid meet" height="2024" width="2000" xmlns="http://www.w3.org/2000/svg" xmlns:xlink="http://www.w3.org/1999/xlink"><g id="tight-bounds" transform="matrix(1,0,0,1,-0.21567999999999188,-0.09999999999999432)"><svg viewBox="0 0 244.43135999999998 247.2" height="247.2" width="244.43135999999998"><g><svg></svg></g><g><svg viewBox="0 0 244.43135999999998 247.2" height="247.2" width="244.43135999999998"><g transform="matrix(1,0,0,1,0,53.68555499056009)"><svg viewBox="0 0 244.43135999999998 139.8288900188798" height="139.8288900188798" width="244.43135999999998"><g><svg viewBox="0 0 244.43135999999998 139.8288900188798" height="139.8288900188798" width="244.43135999999998"><g><svg viewBox="0 0 244.43135999999998 139.8288900188798" height="139.8288900188798" width="244.43135999999998"><g><svg viewBox="0 0 244.43135999999998 139.8288900188798" height="139.8288900188798" width="244.43135999999998"><g id="textblocktransform"><svg viewBox="0 0 244.43135999999998 139.8288900188798" height="139.8288900188798" width="244.43135999999998" id="textblock"><g><svg viewBox="0 0 244.43135999999998 139.8288900188798" height="139.8288900188798" width="244.43135999999998"><g transform="matrix(1,0,0,1,0,0)"><svg width="244.43135999999998" viewBox="-0.75 -36.05 79.45 45.449999999999996" height="139.8288900188798" data-palette-color="#ffffff"><path d="M18.4-35.5L18.4-35.5 30.55-4.2Q31.25-2.4 32.13-1.73 33-1.05 33.7-1L33.7-1 33.7 0Q32.2-0.1 30.18-0.13 28.15-0.15 26.1-0.15L26.1-0.15Q23.8-0.15 21.75-0.13 19.7-0.1 18.5 0L18.5 0 18.5-1Q21.05-1.1 21.73-1.88 22.4-2.65 21.4-5.2L21.4-5.2 12.9-28.45 13.8-29.75 6.2-9.95Q4.8-6.25 4.83-4.35 4.85-2.45 6.05-1.78 7.25-1.1 9.25-1L9.25-1 9.25 0Q7.6-0.1 6.1-0.13 4.6-0.15 3.05-0.15L3.05-0.15Q1.95-0.15 0.98-0.13 0-0.1-0.75 0L-0.75 0-0.75-1Q0.3-1.2 1.4-2.35 2.5-3.5 3.55-6.25L3.55-6.25 14.95-35.5Q15.75-35.45 16.68-35.45 17.6-35.45 18.4-35.5ZM7.5-14.4L21.9-14.4 21.9-13.4 7-13.4 7.5-14.4ZM32.2 9.4L32.2 9.4 32.2 8.4Q34.2 8.2 35.6 7.23 37 6.25 37.75 3.9 38.5 1.55 38.5-2.7L38.5-2.7 38.5-30.1Q38.5-31.95 38.22-32.83 37.95-33.7 37.15-34.02 36.35-34.35 34.75-34.4L34.75-34.4 34.75-35.4Q36-35.35 38.02-35.3 40.05-35.25 42.3-35.25L42.3-35.25Q44.55-35.25 46.67-35.3 48.8-35.35 50.2-35.4L50.2-35.4 50.2-34.4Q48.65-34.35 47.82-34.02 47-33.7 46.72-32.83 46.45-31.95 46.45-30.1L46.45-30.1 46.45-11.8Q46.45-9.75 46.45-7.38 46.45-5 46.27-2.75 46.1-0.5 45.6 1.25L45.6 1.25Q44.6 4.7 41.27 7.05 37.95 9.4 32.2 9.4ZM65.75-36.05L65.75-36.05Q68.7-36.05 70.3-35.43 71.9-34.8 73.05-34.1L73.05-34.1Q73.65-33.75 74.02-33.58 74.4-33.4 74.75-33.4L74.75-33.4Q75.55-33.4 75.84-35.6L75.84-35.6 77-35.6Q76.95-34.65 76.87-33.33 76.8-32 76.77-29.85 76.75-27.7 76.75-24.2L76.75-24.2 75.59-24.2Q75.4-26.8 74.4-29.25 73.4-31.7 71.57-33.27 69.75-34.85 67.09-34.85L67.09-34.85Q64.7-34.85 63.15-33.5 61.59-32.15 61.59-29.75L61.59-29.75Q61.59-27.75 62.59-26.33 63.59-24.9 65.52-23.55 67.45-22.2 70.2-20.3L70.2-20.3Q72.59-18.75 74.5-17.2 76.4-15.65 77.55-13.7 78.7-11.75 78.7-9.05L78.7-9.05Q78.7-5.75 76.97-3.6 75.25-1.45 72.45-0.38 69.65 0.7 66.3 0.7L66.3 0.7Q63.2 0.7 61.34 0.1 59.5-0.5 58.25-1.15L58.25-1.15Q57.15-1.85 56.55-1.85L56.55-1.85Q55.75-1.85 55.45 0.35L55.45 0.35 54.3 0.35Q54.4-0.85 54.42-2.45 54.45-4.05 54.47-6.63 54.5-9.2 54.5-13.15L54.5-13.15 55.65-13.15Q55.84-9.85 56.77-6.98 57.7-4.1 59.62-2.35 61.55-0.6 64.75-0.6L64.75-0.6Q67.34-0.6 69.15-2 70.95-3.4 70.95-6.2L70.95-6.2Q70.95-9.3 68.84-11.33 66.75-13.35 63.45-15.5L63.45-15.5Q61.09-17.05 59.05-18.6 57-20.15 55.77-22.15 54.55-24.15 54.55-26.9L54.55-26.9Q54.55-30.05 56.12-32.08 57.7-34.1 60.27-35.08 62.84-36.05 65.75-36.05Z" opacity="1" transform="matrix(1,0,0,1,0,0)" fill="#ffffff" class="wordmark-text-0" data-fill-palette-color="primary" id="text-0"></path></svg></g></svg></g></svg></g></svg></g><g></g></svg></g></svg></g></svg></g><path d="M0 47.686L0 1 244.431 1 244.431 47.686 231.821 47.686 231.821 13.61 12.61 13.61 12.61 47.686 0 47.686M0 199.514L0 246.2 244.431 246.2 244.431 199.514 231.821 199.514 231.821 233.59 12.61 233.59 12.61 199.514 0 199.514" fill="#ffffff" stroke="transparent" data-fill-palette-color="tertiary"></path></svg></g><defs></defs></svg><rect width="244.43135999999998" height="247.2" fill="none" stroke="none" visibility="hidden"></rect></g></svg></g></svg>